<svg xmlns="http://www.w3.org/2000/svg"
 viewBox="0 -135 1274 1274"
 preserveAspectRatio="xMidYMid meet">
<style>
  svg { fill: #000; }
  @media (prefers-color-scheme: dark) { svg { fill: #fff; } }
</style>
<g transform="translate(0.000000,1004.000000) scale(0.100000,-0.100000)"
stroke="none">
<path d="M1 8543 c1 -873 5 -1467 10 -1423 64 567 370 1069 839 1372 288 187
2154 1321 2245 1364 186 89 368 142 585 169 89 11 -184 13 -1787 14 l-1893 1
1 -1497z"/>
<path d="M4110 10025 c217 -27 395 -79 585 -169 111 -53 2177 -1313 2315
-1412 438 -314 718 -805 770 -1349 5 -60 10 -336 10 -613 l0 -502 -662 2 -662
3 -48 229 c-56 269 -70 300 -150 340 -28 14 -61 26 -72 26 -12 0 -90 -14 -175
-32 l-154 -32 -35 20 c-36 19 -51 40 -152 199 -30 48 -85 125 -122 172 -50 61
-68 92 -68 114 0 21 27 70 90 164 49 74 95 154 101 177 13 48 3 101 -29 153
-12 19 -127 103 -314 229 -314 211 -331 219 -422 202 -52 -10 -86 -44 -181
-182 -47 -68 -95 -129 -106 -135 -30 -15 -127 -6 -254 24 -123 30 -254 51
-302 48 -41 -2 -98 22 -112 47 -6 11 -26 86 -44 168 -19 82 -41 163 -50 181
-30 57 -105 103 -170 103 -35 0 -680 -150 -714 -167 -42 -19 -89 -88 -98 -141
-4 -25 5 -82 25 -172 36 -153 38 -191 17 -223 -8 -13 -57 -48 -109 -77 -106
-62 -294 -199 -322 -236 -21 -29 -66 -54 -96 -54 -12 0 -89 41 -172 90 -140
83 -155 90 -205 90 -64 0 -109 -17 -144 -56 -45 -49 -372 -596 -382 -639 -12
-53 5 -115 44 -159 16 -19 86 -69 155 -111 69 -43 132 -88 141 -101 18 -28 16
-49 -21 -209 -14 -60 -31 -166 -38 -235 -16 -167 -14 -165 -213 -209 -82 -19
-161 -39 -175 -46 -58 -30 -110 -113 -110 -172 1 -15 36 -179 78 -365 86 -368
93 -388 172 -428 53 -27 102 -25 254 10 72 17 139 30 150 30 40 0 82 -37 126
-111 49 -83 136 -207 204 -289 31 -37 46 -64 46 -83 0 -19 -31 -76 -92 -170
-87 -134 -93 -145 -96 -204 -7 -112 2 -121 335 -339 159 -103 306 -194 328
-202 47 -16 101 -11 153 15 28 14 56 47 119 143 45 69 92 135 103 147 32 34
77 38 153 14 101 -31 270 -61 380 -68 151 -9 152 -10 207 -218 l44 -170 3
-974 3 -974 -142 6 c-274 11 -527 78 -763 201 -110 57 -2096 1272 -2239 1370
-439 299 -738 803 -795 1342 -5 45 -9 -824 -10 -1988 l-1 -2068 3613 0 3612 0
-50 29 c-66 38 -86 76 -124 241 -17 74 -36 147 -42 161 -16 40 -55 56 -159 63
-101 7 -312 46 -383 71 -55 19 -107 19 -135 -1 -13 -9 -63 -76 -112 -150 -74
-110 -98 -138 -132 -155 -51 -26 -130 -29 -174 -6 -56 29 -559 359 -586 385
-39 36 -62 101 -56 160 4 40 21 73 96 190 64 98 92 151 92 172 0 21 -17 51
-64 109 -67 83 -137 184 -199 287 -37 62 -67 84 -116 84 -15 0 -85 -13 -157
-30 -71 -16 -143 -30 -160 -30 -45 0 -126 45 -153 85 -32 48 -184 702 -175
755 8 51 49 115 86 138 18 11 105 36 193 56 133 30 164 40 183 62 12 14 22 33
22 42 0 56 34 284 56 377 14 61 26 119 25 130 -1 41 -27 66 -135 131 -151 91
-173 109 -197 156 -17 32 -20 55 -17 102 4 59 10 71 180 351 98 160 187 301
199 314 29 31 96 61 139 61 45 0 87 -20 233 -109 153 -92 174 -94 251 -18 65
63 197 159 324 234 130 77 132 81 92 260 -16 76 -30 159 -30 186 0 72 36 134
95 165 39 20 667 162 717 162 43 0 102 -22 131 -48 34 -31 54 -85 88 -237 38
-173 58 -205 124 -205 63 0 244 -29 373 -60 132 -32 166 -35 205 -21 15 6 57
56 108 131 93 137 131 174 190 190 80 22 105 10 399 -188 151 -101 290 -199
309 -216 41 -38 61 -82 61 -136 0 -58 -17 -93 -114 -234 -56 -80 -86 -134 -86
-151 0 -18 20 -51 58 -98 60 -73 157 -215 204 -297 14 -25 37 -55 50 -67 45
-42 65 -43 209 -12 144 31 202 35 246 18 30 -11 88 -62 104 -91 13 -25 149
-675 149 -715 0 -66 -44 -139 -102 -169 -15 -8 -94 -28 -175 -45 -172 -35
-186 -41 -207 -83 -17 -32 -52 -257 -63 -397 -9 -118 -4 -125 153 -219 73 -44
144 -94 158 -111 35 -42 51 -103 39 -156 -12 -50 -342 -610 -386 -652 -70 -69
-156 -68 -279 4 -46 27 -113 66 -150 88 -82 48 -112 46 -178 -14 -78 -71 -235
-185 -335 -245 -53 -31 -100 -65 -105 -75 -16 -29 -12 -69 20 -202 45 -189 39
-239 -36 -308 -37 -32 -56 -39 -239 -83 -110 -26 -258 -63 -330 -81 l-130 -33
2713 -1 2712 -1 0 2963 0 2962 -21 -42 c-30 -62 -72 -82 -232 -115 -77 -15
-146 -33 -153 -39 -14 -12 -16 -21 -34 -164 -6 -49 -22 -139 -36 -200 -36
-158 -35 -160 116 -258 129 -83 160 -120 160 -191 0 -54 -11 -75 -182 -338
-161 -249 -185 -277 -251 -293 -49 -13 -93 4 -220 85 -69 44 -136 80 -149 80
-45 0 -337 -222 -363 -276 -15 -33 -15 -39 15 -150 16 -65 30 -137 30 -162 0
-57 -32 -114 -79 -140 -20 -11 -162 -53 -316 -92 -299 -77 -341 -82 -393 -43
-44 33 -61 65 -88 163 -54 204 -51 196 -88 214 -19 9 -56 16 -83 16 -65 0
-227 25 -341 52 -121 29 -127 25 -212 -114 -36 -58 -73 -115 -84 -127 -29 -32
-99 -55 -143 -46 -56 10 -548 310 -582 354 -21 28 -26 45 -26 95 0 59 3 66 78
188 93 151 93 158 12 249 -59 66 -157 206 -200 286 -45 84 -64 89 -229 54
-146 -31 -186 -30 -235 6 -52 39 -60 65 -127 370 -71 328 -72 345 -23 407 31
39 68 54 207 86 70 15 135 31 144 35 22 9 35 52 42 141 3 39 16 116 28 170 27
127 32 194 15 216 -7 9 -58 44 -112 78 -112 69 -141 93 -161 132 -17 33 -18
111 -3 141 22 41 302 492 318 511 22 26 90 56 129 56 38 0 74 -17 206 -99 57
-36 108 -61 125 -61 19 0 49 18 97 59 38 32 114 89 169 125 145 95 144 94 151
123 5 17 -5 78 -26 164 -31 126 -33 141 -21 181 7 23 28 57 46 74 31 29 61 38
338 107 239 60 311 74 338 68 93 -21 118 -57 159 -223 18 -73 37 -141 42 -150
15 -30 60 -45 135 -46 85 -1 158 -13 305 -48 138 -33 142 -31 225 101 35 55
76 114 93 132 34 37 97 58 146 49 37 -7 503 -293 551 -339 18 -17 38 -46 44
-65 21 -64 7 -109 -75 -240 -50 -80 -76 -132 -76 -151 0 -20 14 -46 46 -83 54
-63 136 -178 188 -265 44 -74 87 -113 126 -113 15 0 72 9 125 20 129 27 183
26 225 -2 63 -43 69 -60 126 -350 30 -150 56 -277 58 -283 3 -5 5 900 5 2013
l1 2022 -4367 -1 c-3636 -1 -4350 -3 -4263 -14z m-16 -2614 c134 -66 211 -226
177 -369 -7 -27 -39 -95 -72 -152 -32 -56 -59 -106 -59 -111 0 -5 46 -9 102
-9 l101 0 38 -40 c21 -22 47 -40 57 -40 25 0 160 -47 189 -65 39 -26 55 -70
51 -141 -3 -59 -1 -64 17 -64 25 0 386 -289 438 -351 51 -59 80 -141 73 -201
-4 -42 -3 -48 13 -48 13 0 24 16 38 52 11 29 32 61 46 72 24 18 27 18 51 2 37
-24 34 -63 -10 -119 -34 -43 -35 -47 -21 -73 14 -26 16 -27 97 -25 66 2 86 -1
101 -15 24 -21 25 -66 2 -86 -35 -29 -40 -29 -163 -2 l-25 5 22 -15 c29 -21
103 -134 103 -156 0 -26 -27 -50 -55 -50 -28 0 -62 38 -94 108 -26 56 -46 69
-37 25 4 -16 7 -65 8 -111 1 -72 -2 -86 -20 -104 -14 -15 -27 -19 -45 -14 -39
9 -51 58 -38 151 14 96 14 95 -3 95 -22 0 -65 50 -76 89 -6 23 -6 49 -1 69 9
31 9 32 -17 25 -57 -17 -137 -8 -183 19 -84 49 -132 114 -227 304 l-90 179
-110 3 c-110 4 -111 3 -117 -20 -3 -12 -30 -123 -59 -246 -35 -147 -60 -233
-75 -252 -26 -36 -26 -40 -2 -40 39 0 51 -36 51 -158 0 -114 0 -114 -30 -142
l-30 -28 70 -96 c105 -145 107 -151 61 -196 -30 -30 -30 -40 0 -40 9 0 29 -14
43 -31 21 -24 26 -41 26 -83 0 -98 -31 -340 -46 -364 -20 -31 -54 -42 -129
-42 -52 0 -69 4 -90 23 -24 21 -27 32 -46 202 -22 198 -20 237 12 271 21 22
21 25 6 42 -26 28 -77 161 -77 199 0 25 10 44 41 78 23 25 38 45 35 45 -22 0
-51 -28 -87 -85 -38 -61 -43 -65 -78 -65 -36 0 -41 4 -82 68 -26 39 -52 68
-64 70 -17 3 -15 -2 12 -30 56 -58 58 -80 22 -172 -18 -45 -41 -91 -52 -103
l-20 -23 20 -22 c11 -13 24 -34 28 -47 4 -13 -1 -108 -11 -210 -17 -178 -19
-187 -45 -213 -25 -26 -34 -28 -101 -28 -76 0 -108 12 -127 49 -14 25 -45 362
-37 395 10 39 50 76 83 76 l27 0 -34 28 c-52 44 -46 69 43 194 42 58 77 111
77 116 0 5 -9 12 -20 15 -30 8 -40 48 -40 155 0 106 13 145 48 150 27 4 27 6
1 41 -14 19 -41 111 -79 270 -31 133 -60 244 -62 247 -3 3 -55 2 -115 -2
l-110 -7 -91 -183 c-51 -101 -108 -202 -128 -223 -70 -78 -194 -120 -269 -91
l-26 10 6 -44 c9 -57 -16 -111 -63 -139 -25 -15 -32 -25 -28 -41 14 -59 16
-162 4 -186 -19 -36 -62 -39 -84 -5 -14 21 -16 43 -12 130 3 58 2 105 -2 105
-3 0 -21 -32 -39 -71 -35 -75 -61 -96 -105 -85 -30 7 -40 34 -26 70 14 37 77
118 103 134 20 12 20 12 2 8 -115 -27 -137 -28 -164 -8 -32 24 -39 67 -14 94
16 18 27 20 104 16 84 -4 86 -3 101 22 14 25 13 28 -24 75 -48 60 -50 104 -5
119 19 7 34 7 45 0 19 -12 61 -90 61 -116 1 -10 8 -16 19 -15 15 1 18 10 18
66 -1 57 4 75 34 129 37 70 58 90 295 281 83 67 162 124 177 127 26 6 26 8 25
79 -2 71 -1 75 30 107 24 24 56 41 116 61 46 15 93 27 104 27 13 0 24 8 28 20
3 11 18 29 32 40 22 17 40 20 124 20 56 0 99 4 99 10 0 5 -27 56 -60 113 -89
155 -100 248 -44 364 30 63 117 145 176 167 67 24 200 17 262 -13z m-453
-2937 c55 -4 93 -2 106 5 16 8 24 7 31 -2 14 -16 34 -171 30 -223 l-3 -39
-280 0 -280 0 -3 32 c-4 39 35 117 80 160 53 51 134 85 188 78 25 -2 84 -8
131 -11z m584 2 c28 0 89 4 137 9 83 7 90 7 142 -19 69 -34 131 -103 151 -168
24 -82 39 -78 -276 -78 -245 0 -280 2 -286 16 -8 22 17 226 30 242 7 9 18 11
31 6 12 -4 44 -8 71 -8z m7296 -936 c189 -35 222 -47 245 -91 15 -31 15 -39
-1 -130 -9 -54 -14 -107 -10 -118 3 -12 28 -32 53 -45 26 -13 83 -50 127 -81
118 -85 114 -85 211 -25 144 87 161 79 304 -145 147 -230 146 -248 -9 -345
-39 -24 -73 -50 -75 -57 -3 -7 3 -46 14 -87 10 -41 23 -107 29 -147 6 -46 16
-79 28 -91 11 -10 53 -25 102 -35 92 -18 136 -45 146 -91 7 -34 -68 -405 -89
-437 -28 -43 -70 -51 -161 -32 -141 29 -134 32 -228 -123 -67 -111 -67 -112
-2 -205 61 -87 71 -139 37 -181 -17 -21 -286 -220 -329 -242 -56 -31 -105 -5
-174 93 -30 41 -63 78 -75 81 -12 3 -63 -6 -115 -20 -52 -14 -122 -29 -157
-32 -34 -4 -69 -12 -78 -19 -10 -7 -22 -43 -31 -95 -18 -103 -35 -138 -78
-156 -30 -12 -52 -10 -228 21 -108 18 -205 39 -216 44 -52 28 -61 76 -37 209
16 88 15 89 -89 149 -38 23 -97 62 -129 87 -33 25 -68 46 -77 46 -10 0 -54
-23 -97 -50 -78 -49 -122 -61 -167 -44 -21 8 -235 327 -248 370 -15 51 11 91
98 147 41 27 79 55 86 63 9 11 7 33 -10 98 -11 46 -24 109 -27 140 -10 82 -28
100 -116 115 -103 19 -135 34 -155 75 -16 34 -15 42 21 233 20 109 44 209 52
221 9 13 31 30 51 38 31 13 44 13 114 -1 120 -25 126 -23 179 66 25 42 62 99
83 126 20 28 37 59 37 70 0 11 -23 52 -50 91 -56 80 -68 118 -50 161 15 38
326 260 374 268 50 8 83 -15 145 -103 36 -49 65 -80 78 -82 12 -2 43 4 69 13
26 9 96 24 156 34 60 11 115 24 122 30 8 7 19 42 25 79 17 97 29 129 58 152
35 27 70 26 264 -10z"/>
<path d="M3861 7273 c-43 -15 -131 -92 -131 -113 0 -6 76 -10 220 -10 121 0
220 3 220 7 0 18 -56 76 -96 99 -57 34 -149 41 -213 17z"/>
<path d="M11079 2775 c-235 -59 -419 -237 -486 -469 -28 -95 -31 -249 -8 -341
47 -184 182 -354 345 -433 115 -56 185 -73 305 -73 120 0 191 17 305 73 165
81 299 251 346 438 22 88 15 269 -14 360 -46 140 -169 295 -294 368 -105 62
-189 85 -323 88 -80 2 -139 -1 -176 -11z m312 -101 c141 -42 235 -117 292
-234 29 -58 32 -73 32 -155 0 -107 -16 -161 -79 -262 -72 -115 -81 -148 -81
-310 l0 -142 -81 -26 c-73 -22 -99 -25 -242 -25 l-159 0 -6 81 c-5 74 -8 85
-35 111 -25 25 -33 28 -50 19 -11 -6 -34 -11 -50 -11 -39 0 -120 62 -127 98
-35 169 -47 198 -83 205 l-29 6 34 68 c26 53 36 88 43 160 5 50 19 116 31 147
47 126 158 229 294 272 59 19 230 17 296 -2z"/>
<path d="M11129 2586 c-99 -26 -192 -104 -231 -194 -11 -25 -26 -91 -34 -148
-7 -57 -20 -120 -29 -140 -14 -34 -14 -39 1 -55 8 -9 25 -57 37 -107 29 -118
34 -123 107 -115 56 5 58 5 99 -32 49 -45 70 -80 79 -138 l8 -42 104 -3 c70
-2 118 2 145 11 l40 14 6 124 c6 142 25 206 88 303 53 81 72 138 73 216 2 146
-99 261 -267 306 -61 17 -165 17 -226 0z m258 -53 c34 -10 72 -28 85 -40 13
-11 32 -24 44 -27 21 -6 44 -44 44 -70 0 -8 7 -16 15 -20 20 -7 20 -90 -1
-176 -15 -63 -36 -100 -59 -100 -6 0 -24 -13 -40 -30 -16 -16 -35 -30 -43 -30
-8 0 -32 16 -53 35 -22 19 -48 35 -59 35 -11 0 -20 7 -20 15 0 17 -35 21 -45
5 -10 -16 -33 -11 -55 12 -16 17 -23 19 -32 10 -16 -16 -57 -15 -64 2 -3 8
-25 17 -49 21 -60 8 -84 31 -100 92 -16 61 -5 117 25 133 11 6 20 20 20 31 0
52 41 82 155 110 82 21 146 19 232 -8z"/>
<path d="M10280 6835 c-687 -138 -1045 -893 -716 -1511 58 -109 117 -185 215
-275 133 -124 307 -214 493 -255 98 -22 318 -22 416 0 187 41 363 132 494 255
98 92 156 166 214 275 331 622 -32 1379 -724 1512 -91 17 -304 17 -392 -1z
m67 -467 c56 -26 117 -97 133 -153 7 -26 11 -70 7 -104 l-5 -59 47 -46 c26
-25 51 -46 56 -46 15 0 198 210 228 261 28 49 160 179 182 179 18 0 95 -77 95
-96 0 -26 -91 -123 -152 -163 -66 -43 -286 -231 -287 -246 -1 -6 109 -120 244
-255 181 -181 245 -251 245 -268 0 -68 -64 -132 -130 -132 -32 0 -53 18 -267
232 l-233 233 -30 -35 c-16 -19 -34 -51 -39 -70 -8 -26 -56 -81 -184 -208 -95
-94 -181 -172 -191 -172 -10 0 -48 28 -83 63 -50 48 -65 70 -65 91 0 23 31 59
168 197 112 112 176 169 190 169 21 0 114 64 114 79 0 4 -14 20 -31 37 -28 27
-35 29 -112 29 -65 0 -91 5 -123 22 -54 29 -117 101 -132 151 -15 49 -16 139
-1 147 6 4 52 -34 103 -84 90 -88 95 -91 139 -91 82 0 138 76 108 148 -7 16
-50 66 -96 112 -47 47 -85 88 -85 92 0 24 127 15 187 -14z"/>
<path d="M6835 3794 c-159 -28 -325 -96 -470 -192 -92 -61 -249 -218 -312
-312 -247 -369 -279 -815 -88 -1206 155 -318 435 -547 785 -642 87 -24 112
-26 295 -26 186 0 207 2 298 27 221 60 380 151 543 312 121 119 174 191 239
324 321 648 -9 1441 -695 1671 -173 58 -415 76 -595 44z m-20 -328 c131 -60
191 -192 150 -331 -13 -48 -28 -69 -76 -117 -33 -32 -64 -70 -69 -84 -10 -26
-14 -424 -4 -424 3 0 24 13 47 29 69 47 103 61 221 91 148 37 256 84 313 134
55 48 73 87 73 157 0 49 -3 55 -43 93 -58 57 -80 106 -85 194 -4 63 -1 79 23
127 103 211 400 205 496 -10 54 -121 5 -281 -103 -339 -30 -16 -36 -26 -47
-77 -19 -96 -84 -211 -160 -287 -90 -91 -175 -134 -346 -177 -157 -39 -217
-69 -284 -140 -55 -58 -121 -177 -102 -183 31 -10 99 -73 125 -115 23 -38 30
-62 34 -120 6 -92 -20 -158 -85 -218 -59 -54 -104 -72 -184 -73 -157 -1 -272
115 -273 274 0 83 28 144 95 204 l49 44 0 421 0 421 -58 58 c-72 70 -97 134
-89 222 9 100 59 174 148 219 80 40 159 42 234 7z"/>
<path d="M6644 3346 c-61 -28 -96 -105 -75 -168 33 -100 158 -133 232 -62 88
84 37 229 -84 240 -23 3 -56 -2 -73 -10z"/>
<path d="M7553 3341 c-158 -73 -65 -316 100 -262 56 19 90 62 94 123 9 114
-92 186 -194 139z"/>
<path d="M6643 1994 c-95 -47 -97 -200 -4 -249 70 -35 163 -7 195 59 59 124
-69 250 -191 190z"/>
</g>
</svg>
